<mxfile host="app.diagrams.net" modified="2021-06-17T14:54:22.622Z" agent="5.0 (Windows)" etag="2apCg7nBnLTWi-fIWy9N" version="14.7.10" type="github">
  <diagram id="R2lEEEUBdFMjLlhIrx00" name="Page-1">
    <mxGraphModel dx="1182" dy="694" grid="1" gridSize="10" guides="1" tooltips="1" connect="1" arrows="1" fold="1" page="1" pageScale="1" pageWidth="850" pageHeight="1100" math="0" shadow="0" extFonts="Permanent Marker^https://fonts.googleapis.com/css?family=Permanent+Marker">
      <root>
        <mxCell id="0" />
        <mxCell id="1" parent="0" />
        <mxCell id="NZrxK5xvlxKEMrbcHx-y-8" value="Modul" style="swimlane;fontStyle=0;childLayout=stackLayout;horizontal=1;startSize=26;horizontalStack=0;resizeParent=1;resizeParentMax=0;resizeLast=0;collapsible=1;marginBottom=0;fillColor=#F694C1;strokeColor=#AF45ED;fontColor=#095C86;" parent="1" vertex="1">
          <mxGeometry x="90" y="120" width="140" height="104" as="geometry" />
        </mxCell>
        <mxCell id="NZrxK5xvlxKEMrbcHx-y-9" value="ModulNr {PK}" style="text;strokeColor=none;fillColor=none;align=left;verticalAlign=top;spacingLeft=4;spacingRight=4;overflow=hidden;rotatable=0;points=[[0,0.5],[1,0.5]];portConstraint=eastwest;fontColor=#095C86;" parent="NZrxK5xvlxKEMrbcHx-y-8" vertex="1">
          <mxGeometry y="26" width="140" height="26" as="geometry" />
        </mxCell>
        <mxCell id="NZrxK5xvlxKEMrbcHx-y-10" value="Titel" style="text;strokeColor=none;fillColor=none;align=left;verticalAlign=top;spacingLeft=4;spacingRight=4;overflow=hidden;rotatable=0;points=[[0,0.5],[1,0.5]];portConstraint=eastwest;fontColor=#095C86;" parent="NZrxK5xvlxKEMrbcHx-y-8" vertex="1">
          <mxGeometry y="52" width="140" height="26" as="geometry" />
        </mxCell>
        <mxCell id="NZrxK5xvlxKEMrbcHx-y-11" value="Beschreibung" style="text;strokeColor=none;fillColor=none;align=left;verticalAlign=top;spacingLeft=4;spacingRight=4;overflow=hidden;rotatable=0;points=[[0,0.5],[1,0.5]];portConstraint=eastwest;fontColor=#095C86;" parent="NZrxK5xvlxKEMrbcHx-y-8" vertex="1">
          <mxGeometry y="78" width="140" height="26" as="geometry" />
        </mxCell>
        <mxCell id="NZrxK5xvlxKEMrbcHx-y-12" value="Vorlesung" style="swimlane;fontStyle=0;childLayout=stackLayout;horizontal=1;startSize=26;horizontalStack=0;resizeParent=1;resizeParentMax=0;resizeLast=0;collapsible=1;marginBottom=0;fillColor=#F694C1;strokeColor=#AF45ED;fontColor=#095C86;" parent="1" vertex="1">
          <mxGeometry x="370" y="120" width="130" height="110" as="geometry" />
        </mxCell>
        <mxCell id="NZrxK5xvlxKEMrbcHx-y-13" value="VNr {PK}" style="text;strokeColor=none;fillColor=none;align=left;verticalAlign=top;spacingLeft=4;spacingRight=4;overflow=hidden;rotatable=0;points=[[0,0.5],[1,0.5]];portConstraint=eastwest;fontColor=#095C86;" parent="NZrxK5xvlxKEMrbcHx-y-12" vertex="1">
          <mxGeometry y="26" width="130" height="26" as="geometry" />
        </mxCell>
        <mxCell id="NZrxK5xvlxKEMrbcHx-y-14" value="Semester&#xa;    Jahr&#xa;    Halbjahr&#xa;" style="text;strokeColor=none;fillColor=none;align=left;verticalAlign=top;spacingLeft=4;spacingRight=4;overflow=hidden;rotatable=0;points=[[0,0.5],[1,0.5]];portConstraint=eastwest;fontColor=#095C86;" parent="NZrxK5xvlxKEMrbcHx-y-12" vertex="1">
          <mxGeometry y="52" width="130" height="58" as="geometry" />
        </mxCell>
        <mxCell id="NZrxK5xvlxKEMrbcHx-y-16" value="Dozent" style="swimlane;fontStyle=0;childLayout=stackLayout;horizontal=1;startSize=26;horizontalStack=0;resizeParent=1;resizeParentMax=0;resizeLast=0;collapsible=1;marginBottom=0;fillColor=#F694C1;strokeColor=#AF45ED;fontColor=#095C86;" parent="1" vertex="1">
          <mxGeometry x="660" y="120" width="140" height="104" as="geometry" />
        </mxCell>
        <mxCell id="NZrxK5xvlxKEMrbcHx-y-17" value="DNr {PK}" style="text;strokeColor=none;fillColor=none;align=left;verticalAlign=top;spacingLeft=4;spacingRight=4;overflow=hidden;rotatable=0;points=[[0,0.5],[1,0.5]];portConstraint=eastwest;fontColor=#095C86;" parent="NZrxK5xvlxKEMrbcHx-y-16" vertex="1">
          <mxGeometry y="26" width="140" height="26" as="geometry" />
        </mxCell>
        <mxCell id="NZrxK5xvlxKEMrbcHx-y-18" value="Name" style="text;strokeColor=none;fillColor=none;align=left;verticalAlign=top;spacingLeft=4;spacingRight=4;overflow=hidden;rotatable=0;points=[[0,0.5],[1,0.5]];portConstraint=eastwest;fontColor=#095C86;" parent="NZrxK5xvlxKEMrbcHx-y-16" vertex="1">
          <mxGeometry y="52" width="140" height="26" as="geometry" />
        </mxCell>
        <mxCell id="NZrxK5xvlxKEMrbcHx-y-19" value="Vorname" style="text;strokeColor=none;fillColor=none;align=left;verticalAlign=top;spacingLeft=4;spacingRight=4;overflow=hidden;rotatable=0;points=[[0,0.5],[1,0.5]];portConstraint=eastwest;fontColor=#095C86;" parent="NZrxK5xvlxKEMrbcHx-y-16" vertex="1">
          <mxGeometry y="78" width="140" height="26" as="geometry" />
        </mxCell>
        <mxCell id="NZrxK5xvlxKEMrbcHx-y-20" value="Übungsgruppe" style="swimlane;fontStyle=0;childLayout=stackLayout;horizontal=1;startSize=26;horizontalStack=0;resizeParent=1;resizeParentMax=0;resizeLast=0;collapsible=1;marginBottom=0;fillColor=#F694C1;strokeColor=#AF45ED;fontColor=#095C86;" parent="1" vertex="1">
          <mxGeometry x="370" y="330" width="140" height="138" as="geometry" />
        </mxCell>
        <mxCell id="NZrxK5xvlxKEMrbcHx-y-21" value="ÜNr" style="text;strokeColor=none;fillColor=none;align=left;verticalAlign=top;spacingLeft=4;spacingRight=4;overflow=hidden;rotatable=0;points=[[0,0.5],[1,0.5]];portConstraint=eastwest;fontColor=#095C86;" parent="NZrxK5xvlxKEMrbcHx-y-20" vertex="1">
          <mxGeometry y="26" width="140" height="26" as="geometry" />
        </mxCell>
        <mxCell id="NZrxK5xvlxKEMrbcHx-y-22" value="Bezeichnung" style="text;strokeColor=none;fillColor=none;align=left;verticalAlign=top;spacingLeft=4;spacingRight=4;overflow=hidden;rotatable=0;points=[[0,0.5],[1,0.5]];portConstraint=eastwest;fontColor=#095C86;" parent="NZrxK5xvlxKEMrbcHx-y-20" vertex="1">
          <mxGeometry y="52" width="140" height="26" as="geometry" />
        </mxCell>
        <mxCell id="AxsLSgU4tMkHoiEc47RH-21" value="VNr" style="text;strokeColor=none;fillColor=none;align=left;verticalAlign=top;spacingLeft=4;spacingRight=4;overflow=hidden;rotatable=0;points=[[0,0.5],[1,0.5]];portConstraint=eastwest;rounded=0;sketch=0;fontColor=#095C86;" vertex="1" parent="NZrxK5xvlxKEMrbcHx-y-20">
          <mxGeometry y="78" width="140" height="26" as="geometry" />
        </mxCell>
        <mxCell id="AxsLSgU4tMkHoiEc47RH-22" value="" style="line;strokeWidth=1;fillColor=none;align=left;verticalAlign=middle;spacingTop=-1;spacingLeft=3;spacingRight=3;rotatable=0;labelPosition=right;points=[];portConstraint=eastwest;rounded=0;sketch=0;fontColor=#095C86;strokeColor=#AF45ED;" vertex="1" parent="NZrxK5xvlxKEMrbcHx-y-20">
          <mxGeometry y="104" width="140" height="8" as="geometry" />
        </mxCell>
        <mxCell id="AxsLSgU4tMkHoiEc47RH-20" value="ÜNr + VNr {PK}" style="text;strokeColor=none;fillColor=none;align=left;verticalAlign=top;spacingLeft=4;spacingRight=4;overflow=hidden;rotatable=0;points=[[0,0.5],[1,0.5]];portConstraint=eastwest;rounded=0;sketch=0;fontColor=#095C86;" vertex="1" parent="NZrxK5xvlxKEMrbcHx-y-20">
          <mxGeometry y="112" width="140" height="26" as="geometry" />
        </mxCell>
        <mxCell id="NZrxK5xvlxKEMrbcHx-y-24" value="Student" style="swimlane;fontStyle=0;childLayout=stackLayout;horizontal=1;startSize=26;horizontalStack=0;resizeParent=1;resizeParentMax=0;resizeLast=0;collapsible=1;marginBottom=0;fillColor=#F694C1;strokeColor=#AF45ED;fontColor=#095C86;" parent="1" vertex="1">
          <mxGeometry x="660" y="330" width="140" height="104" as="geometry" />
        </mxCell>
        <mxCell id="NZrxK5xvlxKEMrbcHx-y-25" value="Matrikelnr {PK}" style="text;strokeColor=none;fillColor=none;align=left;verticalAlign=top;spacingLeft=4;spacingRight=4;overflow=hidden;rotatable=0;points=[[0,0.5],[1,0.5]];portConstraint=eastwest;fontColor=#095C86;" parent="NZrxK5xvlxKEMrbcHx-y-24" vertex="1">
          <mxGeometry y="26" width="140" height="26" as="geometry" />
        </mxCell>
        <mxCell id="NZrxK5xvlxKEMrbcHx-y-26" value="Name" style="text;strokeColor=none;fillColor=none;align=left;verticalAlign=top;spacingLeft=4;spacingRight=4;overflow=hidden;rotatable=0;points=[[0,0.5],[1,0.5]];portConstraint=eastwest;fontColor=#095C86;" parent="NZrxK5xvlxKEMrbcHx-y-24" vertex="1">
          <mxGeometry y="52" width="140" height="26" as="geometry" />
        </mxCell>
        <mxCell id="NZrxK5xvlxKEMrbcHx-y-27" value="Vorname" style="text;strokeColor=none;fillColor=none;align=left;verticalAlign=top;spacingLeft=4;spacingRight=4;overflow=hidden;rotatable=0;points=[[0,0.5],[1,0.5]];portConstraint=eastwest;fontColor=#095C86;" parent="NZrxK5xvlxKEMrbcHx-y-24" vertex="1">
          <mxGeometry y="78" width="140" height="26" as="geometry" />
        </mxCell>
        <mxCell id="NZrxK5xvlxKEMrbcHx-y-28" value="" style="endArrow=none;html=1;endFill=0;exitX=1;exitY=0.5;exitDx=0;exitDy=0;entryX=0;entryY=0.5;entryDx=0;entryDy=0;strokeColor=#60E696;fontColor=#095C86;" parent="1" source="NZrxK5xvlxKEMrbcHx-y-21" target="NZrxK5xvlxKEMrbcHx-y-25" edge="1">
          <mxGeometry relative="1" as="geometry">
            <mxPoint x="530" y="368.5" as="sourcePoint" />
            <mxPoint x="630" y="368.5" as="targetPoint" />
          </mxGeometry>
        </mxCell>
        <mxCell id="NZrxK5xvlxKEMrbcHx-y-29" value="&amp;lt; nimmt teil an" style="edgeLabel;resizable=0;html=1;align=center;verticalAlign=middle;fontColor=#095C86;" parent="NZrxK5xvlxKEMrbcHx-y-28" connectable="0" vertex="1">
          <mxGeometry relative="1" as="geometry" />
        </mxCell>
        <mxCell id="NZrxK5xvlxKEMrbcHx-y-30" value="" style="endArrow=none;html=1;endFill=0;entryX=0;entryY=0.923;entryDx=0;entryDy=0;entryPerimeter=0;exitX=1.007;exitY=-0.077;exitDx=0;exitDy=0;exitPerimeter=0;strokeColor=#60E696;fontColor=#095C86;" parent="1" source="NZrxK5xvlxKEMrbcHx-y-10" target="NZrxK5xvlxKEMrbcHx-y-13" edge="1">
          <mxGeometry relative="1" as="geometry">
            <mxPoint x="230" y="170" as="sourcePoint" />
            <mxPoint x="330" y="170" as="targetPoint" />
          </mxGeometry>
        </mxCell>
        <mxCell id="NZrxK5xvlxKEMrbcHx-y-31" value="schreibt Inhalte vor &amp;gt;" style="edgeLabel;resizable=0;html=1;align=center;verticalAlign=middle;fontColor=#095C86;" parent="NZrxK5xvlxKEMrbcHx-y-30" connectable="0" vertex="1">
          <mxGeometry relative="1" as="geometry" />
        </mxCell>
        <mxCell id="NZrxK5xvlxKEMrbcHx-y-32" value="" style="endArrow=none;html=1;endFill=0;exitX=1;exitY=0.5;exitDx=0;exitDy=0;entryX=0;entryY=0.5;entryDx=0;entryDy=0;strokeColor=#60E696;fontColor=#095C86;" parent="1" source="NZrxK5xvlxKEMrbcHx-y-13" target="NZrxK5xvlxKEMrbcHx-y-17" edge="1">
          <mxGeometry relative="1" as="geometry">
            <mxPoint x="490" y="160" as="sourcePoint" />
            <mxPoint x="590" y="160" as="targetPoint" />
          </mxGeometry>
        </mxCell>
        <mxCell id="NZrxK5xvlxKEMrbcHx-y-33" value="&amp;lt; hält" style="edgeLabel;resizable=0;html=1;align=center;verticalAlign=middle;fontColor=#095C86;" parent="NZrxK5xvlxKEMrbcHx-y-32" connectable="0" vertex="1">
          <mxGeometry relative="1" as="geometry" />
        </mxCell>
        <mxCell id="NZrxK5xvlxKEMrbcHx-y-37" value="" style="endArrow=none;html=1;endFill=0;exitX=0.5;exitY=0;exitDx=0;exitDy=0;strokeColor=#60E696;fontColor=#095C86;" parent="1" source="NZrxK5xvlxKEMrbcHx-y-20" edge="1">
          <mxGeometry relative="1" as="geometry">
            <mxPoint x="270" y="270" as="sourcePoint" />
            <mxPoint x="440" y="230" as="targetPoint" />
          </mxGeometry>
        </mxCell>
        <mxCell id="NZrxK5xvlxKEMrbcHx-y-38" value="behandelt Inhalte von ^" style="edgeLabel;resizable=0;html=1;align=center;verticalAlign=middle;fontColor=#095C86;" parent="NZrxK5xvlxKEMrbcHx-y-37" connectable="0" vertex="1">
          <mxGeometry relative="1" as="geometry" />
        </mxCell>
        <mxCell id="NZrxK5xvlxKEMrbcHx-y-39" value="1" style="text;html=1;align=center;verticalAlign=middle;resizable=0;points=[];autosize=1;strokeColor=none;fontColor=#095C86;" parent="1" vertex="1">
          <mxGeometry x="230" y="150" width="20" height="20" as="geometry" />
        </mxCell>
        <mxCell id="NZrxK5xvlxKEMrbcHx-y-44" value="1" style="text;html=1;align=center;verticalAlign=middle;resizable=0;points=[];autosize=1;strokeColor=none;fontColor=#095C86;" parent="1" vertex="1">
          <mxGeometry x="350" y="150" width="20" height="20" as="geometry" />
        </mxCell>
        <mxCell id="NZrxK5xvlxKEMrbcHx-y-45" value="1" style="text;html=1;align=center;verticalAlign=middle;resizable=0;points=[];autosize=1;strokeColor=none;fontColor=#095C86;" parent="1" vertex="1">
          <mxGeometry x="640" y="140" width="20" height="20" as="geometry" />
        </mxCell>
        <mxCell id="NZrxK5xvlxKEMrbcHx-y-46" value="1" style="text;html=1;align=center;verticalAlign=middle;resizable=0;points=[];autosize=1;strokeColor=none;fontColor=#095C86;" parent="1" vertex="1">
          <mxGeometry x="640" y="350" width="20" height="20" as="geometry" />
        </mxCell>
        <mxCell id="NZrxK5xvlxKEMrbcHx-y-47" value="1...*" style="text;html=1;align=center;verticalAlign=middle;resizable=0;points=[];autosize=1;strokeColor=none;fontColor=#095C86;" parent="1" vertex="1">
          <mxGeometry x="510" y="350" width="40" height="20" as="geometry" />
        </mxCell>
        <mxCell id="NZrxK5xvlxKEMrbcHx-y-48" value="1...*" style="text;html=1;align=center;verticalAlign=middle;resizable=0;points=[];autosize=1;strokeColor=none;fontColor=#095C86;" parent="1" vertex="1">
          <mxGeometry x="500" y="140" width="40" height="20" as="geometry" />
        </mxCell>
        <mxCell id="NZrxK5xvlxKEMrbcHx-y-49" value="1" style="text;html=1;align=center;verticalAlign=middle;resizable=0;points=[];autosize=1;strokeColor=none;fontColor=#095C86;" parent="1" vertex="1">
          <mxGeometry x="420" y="230" width="20" height="20" as="geometry" />
        </mxCell>
        <mxCell id="NZrxK5xvlxKEMrbcHx-y-50" value="1...*" style="text;html=1;align=center;verticalAlign=middle;resizable=0;points=[];autosize=1;strokeColor=none;fontColor=#095C86;" parent="1" vertex="1">
          <mxGeometry x="390" y="310" width="40" height="20" as="geometry" />
        </mxCell>
        <mxCell id="AxsLSgU4tMkHoiEc47RH-1" value="&lt;div&gt;Jahr gibt das Kalenderjahr an&lt;br&gt;&lt;/div&gt;&lt;div&gt;Halbjahr beschreibt den Typ von Semester, Winter(&#39;w&#39;) oder Sommer(&#39;s&#39;)&lt;br&gt;&lt;/div&gt;" style="shape=note;size=20;whiteSpace=wrap;html=1;fillColor=#F694C1;strokeColor=#AF45ED;fontColor=#095C86;" vertex="1" parent="1">
          <mxGeometry x="90" y="280" width="190" height="80" as="geometry" />
        </mxCell>
        <mxCell id="AxsLSgU4tMkHoiEc47RH-2" value="&lt;div&gt;Studenten nehmen an beliebig vielen Übungsgruppen teil, &lt;br&gt;&lt;/div&gt;&lt;div&gt;aber nur an einer pro Vorlesung&lt;/div&gt;" style="shape=note;size=20;whiteSpace=wrap;html=1;fillColor=#F694C1;strokeColor=#AF45ED;fontColor=#095C86;" vertex="1" parent="1">
          <mxGeometry x="520" y="460" width="140" height="120" as="geometry" />
        </mxCell>
        <mxCell id="AxsLSgU4tMkHoiEc47RH-4" value="" style="endArrow=none;html=1;rounded=0;dashed=1;dashPattern=1 2;exitX=0;exitY=0;exitDx=85;exitDy=0;exitPerimeter=0;entryX=0.008;entryY=1.034;entryDx=0;entryDy=0;entryPerimeter=0;strokeColor=#60E696;fontColor=#095C86;strokeWidth=2;" edge="1" parent="1" source="AxsLSgU4tMkHoiEc47RH-1" target="NZrxK5xvlxKEMrbcHx-y-14">
          <mxGeometry relative="1" as="geometry">
            <mxPoint x="340" y="480" as="sourcePoint" />
            <mxPoint x="500" y="480" as="targetPoint" />
          </mxGeometry>
        </mxCell>
        <mxCell id="AxsLSgU4tMkHoiEc47RH-6" value="" style="endArrow=none;html=1;rounded=0;dashed=1;dashPattern=1 2;entryX=0.5;entryY=0;entryDx=0;entryDy=0;entryPerimeter=0;strokeColor=#60E696;fontColor=#095C86;strokeWidth=2;" edge="1" parent="1" target="AxsLSgU4tMkHoiEc47RH-2">
          <mxGeometry relative="1" as="geometry">
            <mxPoint x="590" y="370" as="sourcePoint" />
            <mxPoint x="500" y="480" as="targetPoint" />
          </mxGeometry>
        </mxCell>
      </root>
    </mxGraphModel>
  </diagram>
</mxfile>
